<svg width="340" height="199" viewBox="0 0 340 199" fill="none" xmlns="http://www.w3.org/2000/svg">
<rect x="0.963867" y="0.0317383" width="339" height="198" rx="10" fill="url(#paint0_linear_37_379)"/>
<mask id="mask0_37_379" style="mask-type:alpha" maskUnits="userSpaceOnUse" x="0" y="0" width="340" height="199">
<rect x="0.963867" y="0.0317383" width="339" height="198" rx="10" fill="url(#paint1_linear_37_379)"/>
</mask>
<g mask="url(#mask0_37_379)">
<circle cx="30.5892" cy="88.5733" r="157.958" fill="white" fill-opacity="0.05"/>
</g>
<path d="M278.75 45.7677H272.668L276.472 22.4543H282.554L278.75 45.7677Z" fill="white"/>
<path d="M300.799 23.0243C299.599 22.5526 297.696 22.0317 295.344 22.0317C289.337 22.0317 285.107 25.2062 285.081 29.7446C285.032 33.0931 288.11 34.9529 290.412 36.0694C292.765 37.2102 293.565 37.9549 293.565 38.9718C293.541 40.5336 291.664 41.2536 289.913 41.2536C287.484 41.2536 286.183 40.8824 284.206 40.0135L283.405 39.641L282.554 44.8743C283.98 45.5184 286.608 46.09 289.337 46.1151C295.719 46.1151 299.874 42.9898 299.923 38.1533C299.947 35.4994 298.322 33.4659 294.818 31.8042C292.69 30.7375 291.388 30.0182 291.388 28.9268C291.413 27.9346 292.49 26.9183 294.891 26.9183C296.868 26.8685 298.321 27.3396 299.422 27.8109L299.972 28.0585L300.799 23.0243Z" fill="white"/>
<path d="M308.883 37.5086C309.384 36.1693 311.311 30.9857 311.311 30.9857C311.286 31.0355 311.811 29.6217 312.111 28.7537L312.537 30.7625C312.537 30.7625 313.688 36.343 313.938 37.5086C312.988 37.5086 310.084 37.5086 308.883 37.5086ZM316.391 22.4543H311.686C310.235 22.4543 309.133 22.8756 308.507 24.3887L299.473 45.7673H305.855C305.855 45.7673 306.905 42.8899 307.131 42.2702C307.831 42.2702 314.04 42.2702 314.94 42.2702C315.115 43.0887 315.666 45.7673 315.666 45.7673H321.298L316.391 22.4543Z" fill="white"/>
<path d="M267.588 22.4543L261.631 38.3518L260.98 35.1276C259.879 31.4073 256.425 27.3653 252.571 25.3555L258.027 45.7429H264.459L274.019 22.4543H267.588Z" fill="white"/>
<path d="M256.1 22.4541H246.314L246.214 22.9252C253.847 24.8598 258.903 29.5232 260.98 35.1283L258.853 24.4138C258.502 22.9248 257.426 22.5032 256.1 22.4541Z" fill="white"/>
<path fill-rule="evenodd" clip-rule="evenodd" d="M30.9639 21.6985H38.7971V30.9293L25.9639 30.9293V26.6985C25.9639 23.9371 28.2024 21.6985 30.9639 21.6985ZM25.9639 33.237L38.7971 33.237V40.16H25.9639V33.237ZM25.9639 42.4677V46.6985C25.9639 49.4599 28.2024 51.6985 30.9639 51.6985H38.7971V42.4677H25.9639ZM52.7972 51.6985H41.1305V21.6985H62.9639C65.7253 21.6985 67.9639 23.9371 67.9639 26.6985V30.9293L55.1305 30.9293L53.3806 30.9293L52.7972 30.9293V51.6985ZM55.1305 33.237L67.9639 33.237V40.16H55.1305V33.237ZM55.1305 42.4677V51.6985H62.9639C65.7253 51.6985 67.9639 49.4599 67.9639 46.6985V42.4677H55.1305Z" fill="#DFDEDE"/>
<path fill-rule="evenodd" clip-rule="evenodd" d="M30.9639 21.6985H38.7971V30.9293L25.9639 30.9293V26.6985C25.9639 23.9371 28.2024 21.6985 30.9639 21.6985ZM25.9639 33.237L38.7971 33.237V40.16H25.9639V33.237ZM25.9639 42.4677V46.6985C25.9639 49.4599 28.2024 51.6985 30.9639 51.6985H38.7971V42.4677H25.9639ZM52.7972 51.6985H41.1305V21.6985H62.9639C65.7253 21.6985 67.9639 23.9371 67.9639 26.6985V30.9293L55.1305 30.9293L53.3806 30.9293L52.7972 30.9293V51.6985ZM55.1305 33.237L67.9639 33.237V40.16H55.1305V33.237ZM55.1305 42.4677V51.6985H62.9639C65.7253 51.6985 67.9639 49.4599 67.9639 46.6985V42.4677H55.1305Z" fill="url(#paint2_linear_37_379)"/>
<path d="M26.3029 125.615C25.9829 125.615 25.6869 125.543 25.4149 125.399C25.1589 125.255 25.0309 125.039 25.0309 124.751V111.431L24.1909 112.487C24.0949 112.567 23.9989 112.631 23.9029 112.679C23.8229 112.711 23.7429 112.727 23.6629 112.727C23.4069 112.727 23.1989 112.623 23.0389 112.415C22.8789 112.191 22.7989 111.943 22.7989 111.671C22.7989 111.271 22.9669 110.951 23.3029 110.711L25.7989 108.311C25.9909 108.135 26.2069 108.047 26.4469 108.047C26.7189 108.047 26.9749 108.127 27.2149 108.287C27.4549 108.431 27.5749 108.631 27.5749 108.887V124.751C27.5749 125.039 27.4389 125.255 27.1669 125.399C26.9109 125.543 26.6229 125.615 26.3029 125.615ZM30.8533 125.615C30.6293 125.615 30.3813 125.543 30.1093 125.399C29.8533 125.239 29.7253 125.023 29.7253 124.751V122.423C29.7253 121.783 29.9173 121.191 30.3013 120.647C30.6853 120.087 31.1733 119.559 31.7653 119.063C32.3573 118.567 32.9893 118.087 33.6613 117.623C34.3333 117.143 34.9653 116.663 35.5573 116.183C36.1493 115.687 36.6373 115.175 37.0213 114.647C37.4053 114.103 37.5973 113.527 37.5973 112.919C37.5973 112.519 37.5013 112.127 37.3093 111.743C37.1333 111.359 36.8533 111.039 36.4693 110.783C36.0853 110.527 35.5893 110.399 34.9813 110.399C34.3093 110.399 33.7333 110.591 33.2533 110.975C32.7893 111.359 32.5573 111.959 32.5573 112.775C32.5573 113.015 32.4373 113.239 32.1973 113.447C31.9733 113.639 31.6533 113.735 31.2373 113.735C30.8853 113.735 30.6053 113.639 30.3973 113.447C30.1893 113.239 30.0853 112.863 30.0853 112.319C30.0853 111.471 30.3093 110.727 30.7573 110.087C31.2213 109.447 31.8213 108.951 32.5573 108.599C33.3093 108.247 34.1253 108.071 35.0053 108.071C35.9173 108.071 36.7653 108.271 37.5493 108.671C38.3333 109.071 38.9573 109.631 39.4213 110.351C39.9013 111.055 40.1413 111.887 40.1413 112.847C40.1413 113.711 39.9493 114.487 39.5653 115.175C39.1973 115.847 38.7173 116.463 38.1253 117.023C37.5333 117.583 36.9013 118.095 36.2293 118.559C35.5733 119.023 34.9493 119.463 34.3573 119.879C33.7813 120.295 33.3013 120.711 32.9173 121.127C32.5493 121.543 32.3653 121.975 32.3653 122.423V123.359H39.3973C39.6213 123.359 39.8133 123.471 39.9733 123.695C40.1493 123.903 40.2373 124.159 40.2373 124.463C40.2373 124.767 40.1493 125.039 39.9733 125.279C39.8133 125.503 39.6213 125.615 39.3973 125.615H30.8533ZM46.7447 125.759C45.4967 125.759 44.4807 125.543 43.6967 125.111C42.9287 124.663 42.3607 124.119 41.9927 123.479C41.6247 122.823 41.4407 122.175 41.4407 121.535C41.4407 121.119 41.5287 120.839 41.7047 120.695C41.8967 120.535 42.2087 120.455 42.6407 120.455C43.1527 120.455 43.4967 120.535 43.6727 120.695C43.8647 120.855 43.9607 121.087 43.9607 121.391C43.9607 121.935 44.1847 122.423 44.6327 122.855C45.0967 123.287 45.8087 123.503 46.7687 123.503C47.7607 123.503 48.4887 123.271 48.9527 122.807C49.4327 122.327 49.6727 121.567 49.6727 120.527V120.071C49.6727 119.111 49.4007 118.439 48.8567 118.055C48.3287 117.655 47.6327 117.455 46.7687 117.455C46.4647 117.455 46.2487 117.351 46.1207 117.143C45.9927 116.935 45.9287 116.703 45.9287 116.447C45.9287 116.191 45.9927 115.959 46.1207 115.751C46.2487 115.527 46.4567 115.415 46.7447 115.415C47.2407 115.415 47.6727 115.351 48.0407 115.223C48.4247 115.079 48.7207 114.823 48.9287 114.455C49.1367 114.071 49.2407 113.511 49.2407 112.775C49.2407 111.895 49.0327 111.263 48.6167 110.879C48.2167 110.495 47.6247 110.303 46.8407 110.303C45.8807 110.303 45.2247 110.511 44.8727 110.927C44.5207 111.327 44.3447 111.775 44.3447 112.271C44.3447 112.591 44.2567 112.847 44.0807 113.039C43.9207 113.215 43.6087 113.303 43.1447 113.303C42.5847 113.303 42.2247 113.223 42.0647 113.063C41.9047 112.887 41.8247 112.575 41.8247 112.127C41.8247 111.743 41.9047 111.319 42.0647 110.855C42.2247 110.375 42.4887 109.927 42.8567 109.511C43.2407 109.095 43.7607 108.751 44.4167 108.479C45.0727 108.207 45.8887 108.071 46.8647 108.071C47.8087 108.071 48.6407 108.207 49.3607 108.479C50.0807 108.751 50.6487 109.199 51.0647 109.823C51.4807 110.447 51.6887 111.287 51.6887 112.343C51.6887 113.335 51.5127 114.183 51.1607 114.887C50.8087 115.591 50.3447 116.079 49.7687 116.351C50.4887 116.623 51.0727 117.055 51.5207 117.647C51.9847 118.239 52.2167 119.047 52.2167 120.071V120.527C52.2167 121.791 51.9687 122.807 51.4727 123.575C50.9927 124.343 50.3367 124.903 49.5047 125.255C48.6727 125.591 47.7527 125.759 46.7447 125.759ZM61.1876 125.615C60.8676 125.615 60.5716 125.543 60.2996 125.399C60.0436 125.255 59.9156 125.039 59.9156 124.751V121.679H54.0356C53.7796 121.679 53.5636 121.599 53.3876 121.439C53.2276 121.263 53.1476 121.031 53.1476 120.743C53.1476 120.551 53.1956 120.367 53.2916 120.191L59.0756 108.767C59.2196 108.511 59.3876 108.335 59.5796 108.239C59.7876 108.127 59.9956 108.071 60.2036 108.071C60.4276 108.071 60.6916 108.167 60.9956 108.359C61.2996 108.535 61.4516 108.767 61.4516 109.055C61.4516 109.151 61.4196 109.279 61.3556 109.439L56.4116 119.303H59.9156V115.991C59.9156 115.687 60.0436 115.471 60.2996 115.343C60.5716 115.215 60.8676 115.151 61.1876 115.151C61.5076 115.151 61.7956 115.215 62.0516 115.343C62.3236 115.471 62.4596 115.687 62.4596 115.991V119.303H63.6596C63.9476 119.303 64.1636 119.431 64.3076 119.687C64.4516 119.927 64.5236 120.191 64.5236 120.479C64.5236 120.783 64.4356 121.063 64.2596 121.319C64.0836 121.559 63.8836 121.679 63.6596 121.679H62.4596V124.751C62.4596 125.039 62.3236 125.255 62.0516 125.399C61.7956 125.543 61.5076 125.615 61.1876 125.615ZM75.3395 125.759C74.1875 125.759 73.2035 125.559 72.3875 125.159C71.5875 124.759 70.9795 124.239 70.5635 123.599C70.1475 122.943 69.9395 122.247 69.9395 121.511C69.9395 121.063 70.0515 120.759 70.2755 120.599C70.4995 120.423 70.8115 120.335 71.2115 120.335C71.7235 120.335 72.0595 120.431 72.2195 120.623C72.3955 120.815 72.4835 121.047 72.4835 121.319C72.4835 122.023 72.7555 122.567 73.2995 122.951C73.8435 123.319 74.5075 123.503 75.2915 123.503C76.1875 123.503 76.8915 123.263 77.4035 122.783C77.9155 122.287 78.1715 121.519 78.1715 120.479V120.023C78.1715 118.999 77.9155 118.239 77.4035 117.743C76.8915 117.247 76.2035 116.999 75.3395 116.999H71.8595C71.4275 116.999 71.1315 116.911 70.9715 116.735C70.8275 116.559 70.7555 116.319 70.7555 116.015C70.7555 115.919 70.7555 115.831 70.7555 115.751C70.7715 115.655 70.7875 115.551 70.8035 115.439L71.3555 108.911C71.4035 108.351 71.5955 108.071 71.9315 108.071H79.0595C79.3155 108.071 79.5075 108.191 79.6355 108.431C79.7795 108.655 79.8515 108.911 79.8515 109.199C79.8515 109.487 79.7795 109.751 79.6355 109.991C79.5075 110.215 79.3155 110.327 79.0595 110.327H73.5155L73.1795 114.959H75.3395C76.3475 114.959 77.2515 115.127 78.0515 115.463C78.8675 115.799 79.5155 116.335 79.9955 117.071C80.4755 117.807 80.7155 118.791 80.7155 120.023V120.479C80.7155 121.759 80.4755 122.791 79.9955 123.575C79.5155 124.343 78.8675 124.903 78.0515 125.255C77.2355 125.591 76.3315 125.759 75.3395 125.759ZM87.9184 125.759C86.9104 125.759 85.9984 125.583 85.1824 125.231C84.3664 124.879 83.7184 124.311 83.2384 123.527C82.7584 122.743 82.5184 121.695 82.5184 120.383V113.423C82.5184 112.127 82.7584 111.087 83.2384 110.303C83.7344 109.519 84.3984 108.951 85.2304 108.599C86.0624 108.247 86.9984 108.071 88.0384 108.071C89.2384 108.071 90.2224 108.287 90.9904 108.719C91.7744 109.151 92.3504 109.695 92.7184 110.351C93.1024 111.007 93.2944 111.671 93.2944 112.343C93.2944 112.759 93.1904 113.047 92.9824 113.207C92.7904 113.351 92.5024 113.423 92.1184 113.423C91.7664 113.423 91.4544 113.359 91.1824 113.231C90.9104 113.103 90.7744 112.847 90.7744 112.463C90.7744 111.791 90.4944 111.271 89.9344 110.903C89.3904 110.519 88.7344 110.327 87.9664 110.327C87.0544 110.327 86.3424 110.583 85.8304 111.095C85.3184 111.591 85.0624 112.367 85.0624 113.423V116.423C85.4624 115.943 85.9504 115.599 86.5264 115.391C87.1024 115.183 87.7264 115.079 88.3984 115.079C89.3104 115.079 90.1344 115.231 90.8704 115.535C91.6064 115.823 92.1904 116.327 92.6224 117.047C93.0704 117.751 93.2944 118.727 93.2944 119.975V120.383C93.2944 121.695 93.0544 122.743 92.5744 123.527C92.1104 124.311 91.4704 124.879 90.6544 125.231C89.8384 125.583 88.9264 125.759 87.9184 125.759ZM87.9184 123.623C88.8144 123.623 89.5104 123.375 90.0064 122.879C90.5024 122.383 90.7504 121.607 90.7504 120.551V120.143C90.7504 119.039 90.5024 118.263 90.0064 117.815C89.5104 117.351 88.8064 117.119 87.8944 117.119C87.0304 117.119 86.3424 117.335 85.8304 117.767C85.3184 118.183 85.0624 118.903 85.0624 119.927V120.551C85.0624 121.607 85.3104 122.383 85.8064 122.879C86.3184 123.375 87.0224 123.623 87.9184 123.623ZM97.8324 125.687C97.4324 125.687 97.0644 125.575 96.7284 125.351C96.4084 125.111 96.2484 124.807 96.2484 124.439C96.2484 124.279 96.2884 124.119 96.3684 123.959L102.968 111.815V110.327H97.2804V112.583C97.2804 112.823 97.1444 113.023 96.8724 113.183C96.6164 113.343 96.3204 113.423 95.9844 113.423C95.6484 113.423 95.3524 113.343 95.0964 113.183C94.8564 113.023 94.7364 112.823 94.7364 112.583V108.911C94.7364 108.703 94.8484 108.511 95.0724 108.335C95.3124 108.159 95.5764 108.071 95.8644 108.071H104.384C104.64 108.071 104.888 108.159 105.128 108.335C105.384 108.511 105.512 108.703 105.512 108.911V111.383C105.512 111.591 105.464 111.823 105.368 112.079C105.272 112.335 105.168 112.575 105.056 112.799L98.6004 125.303C98.4564 125.559 98.2004 125.687 97.8324 125.687ZM112.098 125.759C111.09 125.759 110.178 125.599 109.362 125.279C108.546 124.943 107.898 124.415 107.418 123.695C106.938 122.959 106.698 121.999 106.698 120.815V120.527C106.698 119.295 106.954 118.319 107.466 117.599C107.978 116.863 108.65 116.343 109.482 116.039C108.81 115.783 108.266 115.351 107.85 114.743C107.45 114.135 107.25 113.319 107.25 112.295C107.25 111.271 107.458 110.455 107.874 109.847C108.29 109.223 108.866 108.775 109.602 108.503C110.338 108.215 111.17 108.071 112.098 108.071C113.042 108.071 113.874 108.215 114.594 108.503C115.33 108.775 115.906 109.223 116.322 109.847C116.754 110.455 116.97 111.271 116.97 112.295C116.97 113.319 116.762 114.135 116.346 114.743C115.946 115.351 115.41 115.783 114.738 116.039C115.57 116.343 116.234 116.863 116.73 117.599C117.242 118.319 117.498 119.295 117.498 120.527V120.815C117.498 121.999 117.258 122.959 116.778 123.695C116.298 124.415 115.65 124.943 114.834 125.279C114.018 125.599 113.106 125.759 112.098 125.759ZM112.122 123.647C113.018 123.647 113.714 123.391 114.21 122.879C114.706 122.367 114.954 121.591 114.954 120.551V120.119C114.954 119.095 114.698 118.343 114.186 117.863C113.69 117.367 112.994 117.119 112.098 117.119C111.218 117.119 110.522 117.367 110.01 117.863C109.498 118.343 109.242 119.095 109.242 120.119V120.551C109.242 121.607 109.498 122.391 110.01 122.903C110.522 123.399 111.226 123.647 112.122 123.647ZM112.098 115.007C112.866 115.007 113.458 114.823 113.874 114.455C114.306 114.071 114.522 113.447 114.522 112.583C114.522 111.735 114.306 111.127 113.874 110.759C113.458 110.375 112.866 110.183 112.098 110.183C111.346 110.183 110.754 110.375 110.322 110.759C109.906 111.127 109.698 111.735 109.698 112.583C109.698 113.447 109.906 114.071 110.322 114.455C110.754 114.823 111.346 115.007 112.098 115.007ZM129.394 125.759C128.194 125.759 127.202 125.543 126.418 125.111C125.634 124.679 125.05 124.135 124.666 123.479C124.298 122.823 124.114 122.159 124.114 121.487C124.114 121.071 124.21 120.783 124.402 120.623C124.61 120.463 124.914 120.383 125.314 120.383C125.666 120.383 125.97 120.455 126.226 120.599C126.498 120.727 126.634 120.983 126.634 121.367C126.634 122.039 126.906 122.567 127.45 122.951C128.01 123.319 128.682 123.503 129.466 123.503C130.378 123.503 131.09 123.255 131.602 122.759C132.114 122.247 132.37 121.455 132.37 120.383V117.383C131.97 117.879 131.474 118.231 130.882 118.439C130.306 118.647 129.682 118.751 129.01 118.751C128.114 118.751 127.29 118.607 126.538 118.319C125.802 118.015 125.21 117.511 124.762 116.807C124.33 116.087 124.114 115.103 124.114 113.855V113.423C124.114 112.127 124.354 111.087 124.834 110.303C125.314 109.519 125.954 108.951 126.754 108.599C127.57 108.247 128.482 108.071 129.49 108.071C130.514 108.071 131.434 108.247 132.25 108.599C133.066 108.951 133.714 109.519 134.194 110.303C134.674 111.087 134.914 112.127 134.914 113.423V120.383C134.914 121.695 134.666 122.743 134.17 123.527C133.69 124.311 133.034 124.879 132.202 125.231C131.37 125.583 130.434 125.759 129.394 125.759ZM129.514 116.711C130.378 116.711 131.066 116.503 131.578 116.087C132.106 115.655 132.37 114.927 132.37 113.903V113.279C132.37 112.223 132.114 111.447 131.602 110.951C131.09 110.439 130.386 110.183 129.49 110.183C128.61 110.183 127.914 110.439 127.402 110.951C126.906 111.447 126.658 112.223 126.658 113.279V113.687C126.658 114.791 126.906 115.575 127.402 116.039C127.914 116.487 128.618 116.711 129.514 116.711ZM139.764 125.615C139.444 125.615 139.148 125.543 138.876 125.399C138.62 125.255 138.492 125.039 138.492 124.751V111.431L137.652 112.487C137.556 112.567 137.46 112.631 137.364 112.679C137.284 112.711 137.204 112.727 137.124 112.727C136.868 112.727 136.66 112.623 136.5 112.415C136.34 112.191 136.26 111.943 136.26 111.671C136.26 111.271 136.428 110.951 136.764 110.711L139.26 108.311C139.452 108.135 139.668 108.047 139.908 108.047C140.18 108.047 140.436 108.127 140.676 108.287C140.916 108.431 141.036 108.631 141.036 108.887V124.751C141.036 125.039 140.9 125.255 140.628 125.399C140.372 125.543 140.084 125.615 139.764 125.615ZM144.314 125.615C144.09 125.615 143.842 125.543 143.57 125.399C143.314 125.239 143.186 125.023 143.186 124.751V122.423C143.186 121.783 143.378 121.191 143.762 120.647C144.146 120.087 144.634 119.559 145.226 119.063C145.818 118.567 146.45 118.087 147.122 117.623C147.794 117.143 148.426 116.663 149.018 116.183C149.61 115.687 150.098 115.175 150.482 114.647C150.866 114.103 151.058 113.527 151.058 112.919C151.058 112.519 150.962 112.127 150.77 111.743C150.594 111.359 150.314 111.039 149.93 110.783C149.546 110.527 149.05 110.399 148.442 110.399C147.77 110.399 147.194 110.591 146.714 110.975C146.25 111.359 146.018 111.959 146.018 112.775C146.018 113.015 145.898 113.239 145.658 113.447C145.434 113.639 145.114 113.735 144.698 113.735C144.346 113.735 144.066 113.639 143.858 113.447C143.65 113.239 143.546 112.863 143.546 112.319C143.546 111.471 143.77 110.727 144.218 110.087C144.682 109.447 145.282 108.951 146.018 108.599C146.77 108.247 147.586 108.071 148.466 108.071C149.378 108.071 150.226 108.271 151.01 108.671C151.794 109.071 152.418 109.631 152.882 110.351C153.362 111.055 153.602 111.887 153.602 112.847C153.602 113.711 153.41 114.487 153.026 115.175C152.658 115.847 152.178 116.463 151.586 117.023C150.994 117.583 150.362 118.095 149.69 118.559C149.034 119.023 148.41 119.463 147.818 119.879C147.242 120.295 146.762 120.711 146.378 121.127C146.01 121.543 145.826 121.975 145.826 122.423V123.359H152.858C153.082 123.359 153.274 123.471 153.434 123.695C153.61 123.903 153.698 124.159 153.698 124.463C153.698 124.767 153.61 125.039 153.434 125.279C153.274 125.503 153.082 125.615 152.858 125.615H144.314ZM160.206 125.759C158.958 125.759 157.942 125.543 157.158 125.111C156.39 124.663 155.822 124.119 155.454 123.479C155.086 122.823 154.902 122.175 154.902 121.535C154.902 121.119 154.99 120.839 155.166 120.695C155.358 120.535 155.67 120.455 156.102 120.455C156.614 120.455 156.958 120.535 157.134 120.695C157.326 120.855 157.422 121.087 157.422 121.391C157.422 121.935 157.646 122.423 158.094 122.855C158.558 123.287 159.27 123.503 160.23 123.503C161.222 123.503 161.95 123.271 162.414 122.807C162.894 122.327 163.134 121.567 163.134 120.527V120.071C163.134 119.111 162.862 118.439 162.318 118.055C161.79 117.655 161.094 117.455 160.23 117.455C159.926 117.455 159.71 117.351 159.582 117.143C159.454 116.935 159.39 116.703 159.39 116.447C159.39 116.191 159.454 115.959 159.582 115.751C159.71 115.527 159.918 115.415 160.206 115.415C160.702 115.415 161.134 115.351 161.502 115.223C161.886 115.079 162.182 114.823 162.39 114.455C162.598 114.071 162.702 113.511 162.702 112.775C162.702 111.895 162.494 111.263 162.078 110.879C161.678 110.495 161.086 110.303 160.302 110.303C159.342 110.303 158.686 110.511 158.334 110.927C157.982 111.327 157.806 111.775 157.806 112.271C157.806 112.591 157.718 112.847 157.542 113.039C157.382 113.215 157.07 113.303 156.606 113.303C156.046 113.303 155.686 113.223 155.526 113.063C155.366 112.887 155.286 112.575 155.286 112.127C155.286 111.743 155.366 111.319 155.526 110.855C155.686 110.375 155.95 109.927 156.318 109.511C156.702 109.095 157.222 108.751 157.878 108.479C158.534 108.207 159.35 108.071 160.326 108.071C161.27 108.071 162.102 108.207 162.822 108.479C163.542 108.751 164.11 109.199 164.526 109.823C164.942 110.447 165.15 111.287 165.15 112.343C165.15 113.335 164.974 114.183 164.622 114.887C164.27 115.591 163.806 116.079 163.23 116.351C163.95 116.623 164.534 117.055 164.982 117.647C165.446 118.239 165.678 119.047 165.678 120.071V120.527C165.678 121.791 165.43 122.807 164.934 123.575C164.454 124.343 163.798 124.903 162.966 125.255C162.134 125.591 161.214 125.759 160.206 125.759ZM179.453 125.615C179.133 125.615 178.837 125.543 178.565 125.399C178.309 125.255 178.181 125.039 178.181 124.751V121.679H172.301C172.045 121.679 171.829 121.599 171.653 121.439C171.493 121.263 171.413 121.031 171.413 120.743C171.413 120.551 171.461 120.367 171.557 120.191L177.341 108.767C177.485 108.511 177.653 108.335 177.845 108.239C178.053 108.127 178.261 108.071 178.469 108.071C178.693 108.071 178.957 108.167 179.261 108.359C179.565 108.535 179.717 108.767 179.717 109.055C179.717 109.151 179.685 109.279 179.621 109.439L174.677 119.303H178.181V115.991C178.181 115.687 178.309 115.471 178.565 115.343C178.837 115.215 179.133 115.151 179.453 115.151C179.773 115.151 180.061 115.215 180.317 115.343C180.589 115.471 180.725 115.687 180.725 115.991V119.303H181.925C182.213 119.303 182.429 119.431 182.573 119.687C182.717 119.927 182.789 120.191 182.789 120.479C182.789 120.783 182.701 121.063 182.525 121.319C182.349 121.559 182.149 121.679 181.925 121.679H180.725V124.751C180.725 125.039 180.589 125.255 180.317 125.399C180.061 125.543 179.773 125.615 179.453 125.615ZM188.918 125.759C187.766 125.759 186.782 125.559 185.966 125.159C185.166 124.759 184.558 124.239 184.142 123.599C183.726 122.943 183.518 122.247 183.518 121.511C183.518 121.063 183.63 120.759 183.854 120.599C184.078 120.423 184.39 120.335 184.79 120.335C185.302 120.335 185.638 120.431 185.798 120.623C185.974 120.815 186.062 121.047 186.062 121.319C186.062 122.023 186.334 122.567 186.878 122.951C187.422 123.319 188.086 123.503 188.87 123.503C189.766 123.503 190.47 123.263 190.982 122.783C191.494 122.287 191.75 121.519 191.75 120.479V120.023C191.75 118.999 191.494 118.239 190.982 117.743C190.47 117.247 189.782 116.999 188.918 116.999H185.438C185.006 116.999 184.71 116.911 184.55 116.735C184.406 116.559 184.334 116.319 184.334 116.015C184.334 115.919 184.334 115.831 184.334 115.751C184.35 115.655 184.366 115.551 184.382 115.439L184.934 108.911C184.982 108.351 185.174 108.071 185.51 108.071H192.638C192.894 108.071 193.086 108.191 193.214 108.431C193.358 108.655 193.43 108.911 193.43 109.199C193.43 109.487 193.358 109.751 193.214 109.991C193.086 110.215 192.894 110.327 192.638 110.327H187.094L186.758 114.959H188.918C189.926 114.959 190.83 115.127 191.63 115.463C192.446 115.799 193.094 116.335 193.574 117.071C194.054 117.807 194.294 118.791 194.294 120.023V120.479C194.294 121.759 194.054 122.791 193.574 123.575C193.094 124.343 192.446 124.903 191.63 125.255C190.814 125.591 189.91 125.759 188.918 125.759ZM201.496 125.759C200.488 125.759 199.576 125.583 198.76 125.231C197.944 124.879 197.296 124.311 196.816 123.527C196.336 122.743 196.096 121.695 196.096 120.383V113.423C196.096 112.127 196.336 111.087 196.816 110.303C197.312 109.519 197.976 108.951 198.808 108.599C199.64 108.247 200.576 108.071 201.616 108.071C202.816 108.071 203.8 108.287 204.568 108.719C205.352 109.151 205.928 109.695 206.296 110.351C206.68 111.007 206.872 111.671 206.872 112.343C206.872 112.759 206.768 113.047 206.56 113.207C206.368 113.351 206.08 113.423 205.696 113.423C205.344 113.423 205.032 113.359 204.76 113.231C204.488 113.103 204.352 112.847 204.352 112.463C204.352 111.791 204.072 111.271 203.512 110.903C202.968 110.519 202.312 110.327 201.544 110.327C200.632 110.327 199.92 110.583 199.408 111.095C198.896 111.591 198.64 112.367 198.64 113.423V116.423C199.04 115.943 199.528 115.599 200.104 115.391C200.68 115.183 201.304 115.079 201.976 115.079C202.888 115.079 203.712 115.231 204.448 115.535C205.184 115.823 205.768 116.327 206.2 117.047C206.648 117.751 206.872 118.727 206.872 119.975V120.383C206.872 121.695 206.632 122.743 206.152 123.527C205.688 124.311 205.048 124.879 204.232 125.231C203.416 125.583 202.504 125.759 201.496 125.759ZM201.496 123.623C202.392 123.623 203.088 123.375 203.584 122.879C204.08 122.383 204.328 121.607 204.328 120.551V120.143C204.328 119.039 204.08 118.263 203.584 117.815C203.088 117.351 202.384 117.119 201.472 117.119C200.608 117.119 199.92 117.335 199.408 117.767C198.896 118.183 198.64 118.903 198.64 119.927V120.551C198.64 121.607 198.888 122.383 199.384 122.879C199.896 123.375 200.6 123.623 201.496 123.623ZM211.411 125.687C211.011 125.687 210.643 125.575 210.307 125.351C209.987 125.111 209.827 124.807 209.827 124.439C209.827 124.279 209.867 124.119 209.947 123.959L216.547 111.815V110.327H210.859V112.583C210.859 112.823 210.723 113.023 210.451 113.183C210.195 113.343 209.899 113.423 209.563 113.423C209.227 113.423 208.931 113.343 208.675 113.183C208.435 113.023 208.315 112.823 208.315 112.583V108.911C208.315 108.703 208.427 108.511 208.651 108.335C208.891 108.159 209.155 108.071 209.443 108.071H217.963C218.219 108.071 218.467 108.159 218.707 108.335C218.963 108.511 219.091 108.703 219.091 108.911V111.383C219.091 111.591 219.043 111.823 218.947 112.079C218.851 112.335 218.747 112.575 218.635 112.799L212.179 125.303C212.035 125.559 211.779 125.687 211.411 125.687Z" fill="white"/>
<path d="M28.4389 168.759C27.3669 168.759 26.4149 168.575 25.5829 168.207C24.7669 167.823 24.1269 167.287 23.6629 166.599C23.1989 165.911 22.9669 165.103 22.9669 164.175C22.9669 163.695 23.0709 163.375 23.2789 163.215C23.5029 163.039 23.8309 162.951 24.2629 162.951C24.5829 162.951 24.8629 163.015 25.1029 163.143C25.3589 163.255 25.4949 163.471 25.5109 163.791C25.5429 164.511 25.7749 165.143 26.2069 165.687C26.6389 166.231 27.3509 166.503 28.3429 166.503C29.2549 166.503 29.9589 166.247 30.4549 165.735C30.9669 165.223 31.2229 164.439 31.2229 163.383V153.327H28.4149C28.1429 153.327 27.9349 153.215 27.7909 152.991C27.6469 152.751 27.5749 152.479 27.5749 152.175C27.5749 151.919 27.6389 151.671 27.7669 151.431C27.8949 151.191 28.1109 151.071 28.4149 151.071H32.6389C32.9109 151.071 33.1669 151.143 33.4069 151.287C33.6469 151.431 33.7669 151.639 33.7669 151.911V163.383C33.7669 164.695 33.5269 165.743 33.0469 166.527C32.5669 167.311 31.9269 167.879 31.1269 168.231C30.3269 168.583 29.4309 168.759 28.4389 168.759ZM42.0557 168.759C41.0477 168.759 40.1357 168.583 39.3197 168.231C38.5037 167.879 37.8557 167.311 37.3757 166.527C36.9117 165.743 36.6797 164.695 36.6797 163.383V156.423C36.6797 155.127 36.9117 154.087 37.3757 153.303C37.8557 152.519 38.5037 151.951 39.3197 151.599C40.1357 151.247 41.0477 151.071 42.0557 151.071C43.0637 151.071 43.9757 151.247 44.7917 151.599C45.6077 151.951 46.2557 152.519 46.7357 153.303C47.2157 154.087 47.4557 155.127 47.4557 156.423V163.383C47.4557 164.695 47.2157 165.743 46.7357 166.527C46.2557 167.311 45.6077 167.879 44.7917 168.231C43.9757 168.583 43.0637 168.759 42.0557 168.759ZM42.0557 166.503C42.9357 166.503 43.6317 166.255 44.1437 165.759C44.6557 165.247 44.9117 164.455 44.9117 163.383V156.423C44.9117 155.367 44.6557 154.591 44.1437 154.095C43.6317 153.583 42.9357 153.327 42.0557 153.327C41.1597 153.327 40.4637 153.583 39.9677 154.095C39.4717 154.591 39.2237 155.367 39.2237 156.423V163.383C39.2237 164.455 39.4717 165.247 39.9677 165.759C40.4637 166.255 41.1597 166.503 42.0557 166.503ZM51.7134 168.615C51.3934 168.615 51.0974 168.543 50.8254 168.399C50.5694 168.255 50.4414 168.039 50.4414 167.751V151.887C50.4414 151.599 50.5694 151.391 50.8254 151.263C51.0974 151.135 51.3934 151.071 51.7134 151.071C52.0334 151.071 52.3214 151.135 52.5774 151.263C52.8494 151.391 52.9854 151.599 52.9854 151.887V158.487H58.9614V151.887C58.9614 151.599 59.0894 151.391 59.3454 151.263C59.6174 151.135 59.9134 151.071 60.2334 151.071C60.5534 151.071 60.8414 151.135 61.0974 151.263C61.3694 151.391 61.5054 151.599 61.5054 151.887V167.751C61.5054 168.039 61.3694 168.255 61.0974 168.399C60.8414 168.543 60.5534 168.615 60.2334 168.615C59.9134 168.615 59.6174 168.543 59.3454 168.399C59.0894 168.255 58.9614 168.039 58.9614 167.751V160.527H52.9854V167.751C52.9854 168.039 52.8494 168.255 52.5774 168.399C52.3214 168.543 52.0334 168.615 51.7134 168.615ZM65.94 168.615C65.62 168.615 65.324 168.543 65.052 168.399C64.796 168.255 64.668 168.039 64.668 167.751V151.911C64.668 151.623 64.796 151.415 65.052 151.287C65.324 151.143 65.62 151.071 65.94 151.071C66.404 151.071 66.764 151.175 67.02 151.383C67.292 151.591 67.572 151.967 67.86 152.511L73.188 162.903V151.887C73.188 151.599 73.316 151.391 73.572 151.263C73.844 151.135 74.14 151.071 74.46 151.071C74.78 151.071 75.068 151.135 75.324 151.263C75.596 151.391 75.732 151.599 75.732 151.887V167.751C75.732 168.039 75.596 168.255 75.324 168.399C75.068 168.543 74.78 168.615 74.46 168.615C73.788 168.615 73.284 168.295 72.948 167.655L67.212 156.759V167.751C67.212 168.039 67.076 168.255 66.804 168.399C66.548 168.543 66.26 168.615 65.94 168.615ZM84.8272 168.615C84.4912 168.615 84.2192 168.535 84.0112 168.375C83.8032 168.199 83.6992 167.999 83.6992 167.775V151.887C83.6992 151.679 83.8032 151.495 84.0112 151.335C84.2192 151.159 84.4912 151.071 84.8272 151.071H89.0752C90.0832 151.071 90.9952 151.247 91.8112 151.599C92.6272 151.951 93.2752 152.519 93.7552 153.303C94.2352 154.087 94.4752 155.127 94.4752 156.423V163.239C94.4752 164.551 94.2352 165.599 93.7552 166.383C93.2752 167.167 92.6272 167.735 91.8112 168.087C90.9952 168.439 90.0832 168.615 89.0752 168.615H84.8272ZM86.2432 166.359H89.0752C89.9712 166.359 90.6672 166.103 91.1632 165.591C91.6752 165.079 91.9312 164.295 91.9312 163.239V156.423C91.9312 155.367 91.6752 154.591 91.1632 154.095C90.6672 153.583 89.9712 153.327 89.0752 153.327H86.2432V166.359ZM102.665 168.759C101.657 168.759 100.745 168.583 99.929 168.231C99.113 167.879 98.465 167.311 97.985 166.527C97.521 165.743 97.289 164.695 97.289 163.383V156.423C97.289 155.127 97.521 154.087 97.985 153.303C98.465 152.519 99.113 151.951 99.929 151.599C100.745 151.247 101.657 151.071 102.665 151.071C103.673 151.071 104.585 151.247 105.401 151.599C106.217 151.951 106.865 152.519 107.345 153.303C107.825 154.087 108.065 155.127 108.065 156.423V163.383C108.065 164.695 107.825 165.743 107.345 166.527C106.865 167.311 106.217 167.879 105.401 168.231C104.585 168.583 103.673 168.759 102.665 168.759ZM102.665 166.503C103.545 166.503 104.241 166.255 104.753 165.759C105.265 165.247 105.521 164.455 105.521 163.383V156.423C105.521 155.367 105.265 154.591 104.753 154.095C104.241 153.583 103.545 153.327 102.665 153.327C101.769 153.327 101.073 153.583 100.577 154.095C100.081 154.591 99.833 155.367 99.833 156.423V163.383C99.833 164.455 100.081 165.247 100.577 165.759C101.073 166.255 101.769 166.503 102.665 166.503ZM112.179 168.615C111.907 168.615 111.651 168.543 111.411 168.399C111.171 168.255 111.051 168.039 111.051 167.751V151.911C111.051 151.639 111.171 151.431 111.411 151.287C111.651 151.143 111.907 151.071 112.179 151.071H120.723C121.011 151.071 121.219 151.191 121.347 151.431C121.491 151.671 121.563 151.919 121.563 152.175C121.563 152.479 121.491 152.751 121.347 152.991C121.203 153.215 120.995 153.327 120.723 153.327H113.595V158.799H117.291C117.563 158.799 117.771 158.911 117.915 159.135C118.059 159.343 118.131 159.583 118.131 159.855C118.131 160.079 118.059 160.303 117.915 160.527C117.787 160.735 117.579 160.839 117.291 160.839H113.595V166.359H120.723C120.995 166.359 121.203 166.479 121.347 166.719C121.491 166.943 121.563 167.207 121.563 167.511C121.563 167.767 121.491 168.015 121.347 168.255C121.219 168.495 121.011 168.615 120.723 168.615H112.179Z" fill="white"/>
<path d="M260.207 168.759C259.199 168.759 258.287 168.583 257.471 168.231C256.655 167.879 256.007 167.311 255.527 166.527C255.063 165.743 254.831 164.695 254.831 163.383V156.423C254.831 155.127 255.063 154.087 255.527 153.303C256.007 152.519 256.655 151.951 257.471 151.599C258.287 151.247 259.199 151.071 260.207 151.071C261.215 151.071 262.127 151.247 262.943 151.599C263.759 151.951 264.407 152.519 264.887 153.303C265.367 154.087 265.607 155.127 265.607 156.423V163.383C265.607 164.695 265.367 165.743 264.887 166.527C264.407 167.311 263.759 167.879 262.943 168.231C262.127 168.583 261.215 168.759 260.207 168.759ZM260.207 166.503C261.103 166.503 261.799 166.255 262.295 165.759C262.807 165.247 263.063 164.455 263.063 163.383V156.423C263.063 155.367 262.807 154.591 262.295 154.095C261.799 153.583 261.103 153.327 260.207 153.327C259.311 153.327 258.615 153.583 258.119 154.095C257.623 154.591 257.375 155.367 257.375 156.423V163.383C257.375 164.455 257.623 165.247 258.119 165.759C258.615 166.255 259.311 166.503 260.207 166.503ZM260.231 160.959C259.911 160.959 259.655 160.863 259.463 160.671C259.287 160.463 259.199 160.215 259.199 159.927C259.199 159.623 259.287 159.383 259.463 159.207C259.655 159.015 259.911 158.919 260.231 158.919C260.535 158.919 260.775 159.015 260.951 159.207C261.143 159.383 261.239 159.623 261.239 159.927C261.239 160.215 261.143 160.463 260.951 160.671C260.775 160.863 260.535 160.959 260.231 160.959ZM273.379 168.759C272.371 168.759 271.459 168.583 270.643 168.231C269.827 167.879 269.179 167.311 268.699 166.527C268.235 165.743 268.003 164.695 268.003 163.383V156.423C268.003 155.127 268.235 154.087 268.699 153.303C269.179 152.519 269.827 151.951 270.643 151.599C271.459 151.247 272.371 151.071 273.379 151.071C274.387 151.071 275.299 151.247 276.115 151.599C276.931 151.951 277.579 152.519 278.059 153.303C278.539 154.087 278.779 155.127 278.779 156.423V163.383C278.779 164.695 278.539 165.743 278.059 166.527C277.579 167.311 276.931 167.879 276.115 168.231C275.299 168.583 274.387 168.759 273.379 168.759ZM273.379 166.503C274.275 166.503 274.971 166.255 275.467 165.759C275.979 165.247 276.235 164.455 276.235 163.383V156.423C276.235 155.367 275.979 154.591 275.467 154.095C274.971 153.583 274.275 153.327 273.379 153.327C272.483 153.327 271.787 153.583 271.291 154.095C270.795 154.591 270.547 155.367 270.547 156.423V163.383C270.547 164.455 270.795 165.247 271.291 165.759C271.787 166.255 272.483 166.503 273.379 166.503ZM273.403 160.959C273.083 160.959 272.827 160.863 272.635 160.671C272.459 160.463 272.371 160.215 272.371 159.927C272.371 159.623 272.459 159.383 272.635 159.207C272.827 159.015 273.083 158.919 273.403 158.919C273.707 158.919 273.947 159.015 274.123 159.207C274.315 159.383 274.411 159.623 274.411 159.927C274.411 160.215 274.315 160.463 274.123 160.671C273.947 160.863 273.707 160.959 273.403 160.959ZM281.062 169.455C280.79 169.455 280.566 169.359 280.39 169.167C280.214 168.991 280.126 168.791 280.126 168.567C280.126 168.439 280.158 168.319 280.222 168.207L289.054 150.567C289.182 150.279 289.414 150.135 289.75 150.135C289.99 150.135 290.214 150.223 290.422 150.399C290.646 150.559 290.758 150.775 290.758 151.047C290.758 151.191 290.734 151.319 290.686 151.431L281.878 168.999C281.734 169.303 281.462 169.455 281.062 169.455ZM297.426 168.759C296.418 168.759 295.506 168.583 294.69 168.231C293.874 167.879 293.226 167.311 292.746 166.527C292.282 165.743 292.05 164.695 292.05 163.383V156.423C292.05 155.127 292.282 154.087 292.746 153.303C293.226 152.519 293.874 151.951 294.69 151.599C295.506 151.247 296.418 151.071 297.426 151.071C298.434 151.071 299.346 151.247 300.162 151.599C300.978 151.951 301.626 152.519 302.106 153.303C302.586 154.087 302.826 155.127 302.826 156.423V163.383C302.826 164.695 302.586 165.743 302.106 166.527C301.626 167.311 300.978 167.879 300.162 168.231C299.346 168.583 298.434 168.759 297.426 168.759ZM297.426 166.503C298.322 166.503 299.018 166.255 299.514 165.759C300.026 165.247 300.282 164.455 300.282 163.383V156.423C300.282 155.367 300.026 154.591 299.514 154.095C299.018 153.583 298.322 153.327 297.426 153.327C296.53 153.327 295.834 153.583 295.338 154.095C294.842 154.591 294.594 155.367 294.594 156.423V163.383C294.594 164.455 294.842 165.247 295.338 165.759C295.834 166.255 296.53 166.503 297.426 166.503ZM297.45 160.959C297.13 160.959 296.874 160.863 296.682 160.671C296.506 160.463 296.418 160.215 296.418 159.927C296.418 159.623 296.506 159.383 296.682 159.207C296.874 159.015 297.13 158.919 297.45 158.919C297.754 158.919 297.994 159.015 298.17 159.207C298.362 159.383 298.458 159.623 298.458 159.927C298.458 160.215 298.362 160.463 298.17 160.671C297.994 160.863 297.754 160.959 297.45 160.959ZM310.597 168.759C309.589 168.759 308.677 168.583 307.861 168.231C307.045 167.879 306.397 167.311 305.917 166.527C305.453 165.743 305.221 164.695 305.221 163.383V156.423C305.221 155.127 305.453 154.087 305.917 153.303C306.397 152.519 307.045 151.951 307.861 151.599C308.677 151.247 309.589 151.071 310.597 151.071C311.605 151.071 312.517 151.247 313.333 151.599C314.149 151.951 314.797 152.519 315.277 153.303C315.757 154.087 315.997 155.127 315.997 156.423V163.383C315.997 164.695 315.757 165.743 315.277 166.527C314.797 167.311 314.149 167.879 313.333 168.231C312.517 168.583 311.605 168.759 310.597 168.759ZM310.597 166.503C311.493 166.503 312.189 166.255 312.685 165.759C313.197 165.247 313.453 164.455 313.453 163.383V156.423C313.453 155.367 313.197 154.591 312.685 154.095C312.189 153.583 311.493 153.327 310.597 153.327C309.701 153.327 309.005 153.583 308.509 154.095C308.013 154.591 307.765 155.367 307.765 156.423V163.383C307.765 164.455 308.013 165.247 308.509 165.759C309.005 166.255 309.701 166.503 310.597 166.503ZM310.621 160.959C310.301 160.959 310.045 160.863 309.853 160.671C309.677 160.463 309.589 160.215 309.589 159.927C309.589 159.623 309.677 159.383 309.853 159.207C310.045 159.015 310.301 158.919 310.621 158.919C310.925 158.919 311.165 159.015 311.341 159.207C311.533 159.383 311.629 159.623 311.629 159.927C311.629 160.215 311.533 160.463 311.341 160.671C311.165 160.863 310.925 160.959 310.621 160.959Z" fill="white"/>
<defs>
<linearGradient id="paint0_linear_37_379" x1="170.464" y1="0.0317383" x2="170.464" y2="198.032" gradientUnits="userSpaceOnUse">
<stop stop-color="#ACACAC"/>
<stop offset="1" stop-color="#4F4F4F"/>
</linearGradient>
<linearGradient id="paint1_linear_37_379" x1="170.464" y1="0.0317383" x2="170.464" y2="198.032" gradientUnits="userSpaceOnUse">
<stop stop-color="#9A9A9A"/>
<stop offset="1" stop-color="#5A5A5A"/>
</linearGradient>
<linearGradient id="paint2_linear_37_379" x1="46.9639" y1="21.6985" x2="46.9639" y2="51.6985" gradientUnits="userSpaceOnUse">
<stop stop-color="white"/>
<stop offset="1" stop-color="white" stop-opacity="0"/>
</linearGradient>
</defs>
</svg>
