<svg width="135" height="45" viewBox="0 0 135 45" fill="none" xmlns="http://www.w3.org/2000/svg">
<rect x="0.611816" y="0.268677" width="44" height="44" rx="16" fill="#40BFFF"/>
<path fill-rule="evenodd" clip-rule="evenodd" d="M31.6737 20.5402C32.6283 21.4948 32.6283 23.0426 31.6737 23.9972L24.3404 31.3305C23.3857 32.2851 21.838 32.2851 20.8834 31.3305L13.5501 23.9972C12.5954 23.0426 12.5954 21.4948 13.5501 20.5402L20.8834 13.2069C21.838 12.2523 23.3857 12.2523 24.3404 13.2069L31.6737 20.5402ZM22.6119 18.3923L18.7355 22.2687L22.6119 26.145L26.4882 22.2687L22.6119 18.3923Z" fill="white"/>
<path d="M59.7832 17.4104H52.0432V30.0464H59.7832V27.5804H55.1212V24.8084H59.2432V22.4324H55.1212V19.8764H59.7832V17.4104ZM61.6015 25.0064H69.5215V22.4504H61.6015V25.0064ZM71.7009 23.7104C71.7009 27.4904 74.3289 30.1364 78.0549 30.1364C81.0609 30.1364 83.3289 28.4624 84.0489 25.7264H80.6649C80.1429 26.8064 79.1889 27.3464 78.0189 27.3464C76.1289 27.3464 74.8329 25.9424 74.8329 23.7104C74.8329 21.4784 76.1289 20.0744 78.0189 20.0744C79.1889 20.0744 80.1429 20.6144 80.6649 21.6944H84.0489C83.3289 18.9584 81.0609 17.2664 78.0549 17.2664C74.3289 17.2664 71.7009 19.9304 71.7009 23.7104ZM95.7619 25.0244C95.7619 21.8384 93.4939 19.8584 90.5419 19.8584C87.6079 19.8584 85.3219 21.8384 85.3219 25.0244C85.3219 28.2104 87.5539 30.1904 90.5059 30.1904C93.4579 30.1904 95.7619 28.2104 95.7619 25.0244ZM88.4539 25.0244C88.4539 23.3144 89.4259 22.5224 90.5419 22.5224C91.6219 22.5224 92.6299 23.3144 92.6299 25.0244C92.6299 26.7164 91.6039 27.5264 90.5059 27.5264C89.3899 27.5264 88.4539 26.7164 88.4539 25.0244ZM111.237 30.0464H114.297V24.1784C114.297 21.4784 112.695 19.8944 110.211 19.8944C108.753 19.8944 107.493 20.7044 106.827 21.7664C106.143 20.5604 104.919 19.8944 103.407 19.8944C102.093 19.8944 101.067 20.4524 100.473 21.2624V20.0024H97.3948V30.0464H100.473V24.5924C100.473 23.2784 101.229 22.5584 102.399 22.5584C103.569 22.5584 104.325 23.2784 104.325 24.5924V30.0464H107.385V24.5924C107.385 23.2784 108.141 22.5584 109.311 22.5584C110.481 22.5584 111.237 23.2784 111.237 24.5924V30.0464ZM130.291 30.0464H133.351V24.1784C133.351 21.4784 131.749 19.8944 129.265 19.8944C127.807 19.8944 126.547 20.7044 125.881 21.7664C125.197 20.5604 123.973 19.8944 122.461 19.8944C121.147 19.8944 120.121 20.4524 119.527 21.2624V20.0024H116.449V30.0464H119.527V24.5924C119.527 23.2784 120.283 22.5584 121.453 22.5584C122.623 22.5584 123.379 23.2784 123.379 24.5924V30.0464H126.439V24.5924C126.439 23.2784 127.195 22.5584 128.365 22.5584C129.535 22.5584 130.291 23.2784 130.291 24.5924V30.0464Z" fill="#22262A"/>
</svg>
