<svg width="18" height="18" viewBox="0 0 18 18" fill="none" xmlns="http://www.w3.org/2000/svg">
<path fill-rule="evenodd" clip-rule="evenodd" d="M14.44 12.26C14.954 12.2593 15.4519 12.0803 15.8487 11.7535C16.2456 11.4267 16.5167 10.9724 16.616 10.468L17.731 4.89502C17.7956 4.57204 17.7878 4.23873 17.7081 3.91913C17.6285 3.59952 17.4791 3.30156 17.2705 3.04663C17.0619 2.7917 16.7995 2.58614 16.502 2.44476C16.2045 2.30339 15.8794 2.2297 15.55 2.229H4.45V1.11401C4.44974 0.819162 4.33271 0.536409 4.1245 0.327637C3.91629 0.118864 3.63386 0.00105765 3.33901 0H1.12401C0.834208 0.00868189 0.559181 0.12989 0.357259 0.337952C0.155337 0.546014 0.0424088 0.824567 0.0424088 1.1145C0.0424088 1.40444 0.155337 1.68299 0.357259 1.89105C0.559181 2.09911 0.834208 2.22032 1.12401 2.229H2.239V13.374C1.79773 13.372 1.36578 13.5011 0.997914 13.7448C0.630044 13.9885 0.342808 14.3359 0.172566 14.743C0.00232412 15.1502 -0.0432585 15.5986 0.0416154 16.0317C0.126489 16.4647 0.337983 16.8629 0.649312 17.1756C0.960641 17.4883 1.3578 17.7016 1.79046 17.7884C2.22311 17.8752 2.67179 17.8317 3.07967 17.6633C3.48755 17.4949 3.83628 17.2092 4.08165 16.8424C4.32703 16.4756 4.45799 16.0443 4.458 15.603H12.224C12.2258 16.0417 12.3575 16.47 12.6025 16.8339C12.8475 17.1978 13.1949 17.4809 13.6007 17.6476C14.0065 17.8142 14.4525 17.8569 14.8826 17.7703C15.3126 17.6836 15.7074 17.4714 16.0169 17.1606C16.3265 16.8498 16.5371 16.4542 16.622 16.0238C16.7069 15.5934 16.6624 15.1475 16.4941 14.7424C16.3258 14.3372 16.0413 13.991 15.6764 13.7475C15.3116 13.504 14.8827 13.374 14.444 13.374H4.45702V12.26H14.44ZM15.555 4.46002L14.44 10.033H4.45299V4.46002H15.553H15.555Z" fill="#FF3333"/>
<path d="M15.555 4.46002L14.44 10.033H4.45299V4.46002H15.553H15.555Z" fill="#FF3333"/>
</svg>
