<svg width="26" height="26" viewBox="0 0 26 26" fill="none" xmlns="http://www.w3.org/2000/svg">
<path opacity="0.5" d="M18.2048 13.2217L25.3071 20.324C25.7332 20.7501 25.9463 21.3183 25.9463 21.8865C25.9463 22.5257 25.7332 23.0938 25.3071 23.52L23.7446 25.0825C23.2474 25.5086 22.6792 25.7217 22.1111 25.7217C21.4719 25.7217 20.9747 25.5086 20.5486 25.0825L13.4463 17.9802L6.34402 25.0825C5.91788 25.5086 5.3497 25.7217 4.78152 25.7217C4.14231 25.7217 3.57413 25.5086 3.14799 25.0825L1.58549 23.52C1.15936 23.0938 0.946289 22.5257 0.946289 21.8865C0.946289 21.3183 1.15936 20.7501 1.58549 20.324L8.68777 13.2217L1.58549 6.11941C1.15936 5.69327 0.946289 5.19611 0.946289 4.55691C0.946289 3.98873 1.15936 3.42054 1.58549 2.92338L3.14799 1.36088C3.57413 0.934748 4.14231 0.72168 4.78152 0.72168C5.3497 0.72168 5.91788 0.934748 6.34402 1.36088L13.4463 8.46316L20.5486 1.36088C20.9747 0.934748 21.4719 0.72168 22.1111 0.72168C22.6792 0.72168 23.2474 0.934748 23.7446 1.36088L25.3071 2.92338C25.7332 3.42054 25.9463 3.98873 25.9463 4.55691C25.9463 5.19611 25.7332 5.69327 25.3071 6.11941L18.2048 13.2217Z" fill="#40BFFF"/>
</svg>
