<svg width="25" height="25" viewBox="0 0 25 25" fill="none" xmlns="http://www.w3.org/2000/svg">
<path d="M9.974 7.41548L9.97652 7.41648C10.029 7.19498 10.2199 7.03198 10.4588 7.03198H17.2615C17.2701 7.03198 17.2787 7.02848 17.2873 7.02898C17.1423 4.63948 15.118 3.53198 13.332 3.53198H6.52919C6.28984 3.53198 6.09897 3.69948 6.04696 3.92048L6.04443 3.91948L3.07075 17.4385L3.07731 17.439C3.07024 17.471 3.05762 17.5015 3.05762 17.536C3.05762 17.8125 3.28333 18.0315 3.56257 18.0315H7.63807L9.974 7.41548Z" fill="#1565C0"/>
<path d="M17.2888 7.02881C17.3156 7.46681 17.2863 7.94331 17.1732 8.46981C16.5264 11.4673 14.1879 13.0273 11.298 13.0273C11.298 13.0273 9.54585 13.0273 9.12017 13.0273C8.85709 13.0273 8.73287 13.1803 8.67581 13.2973L7.79719 17.3218L7.64318 18.0363H7.64015L7.00239 20.9343L7.00895 20.9348C7.00188 20.9668 6.98926 20.9973 6.98926 21.0318C6.98926 21.3083 7.21497 21.5318 7.49421 21.5318H11.1971L11.2036 21.5268C11.442 21.5233 11.6313 21.3548 11.6808 21.1328L11.6899 21.1253L12.6049 16.9173C12.6049 16.9173 12.6685 16.5158 13.0947 16.5158C13.5209 16.5158 15.2044 16.5158 15.2044 16.5158C18.0942 16.5158 20.4564 14.9628 21.1038 11.9648C21.8319 8.58481 19.397 7.04131 17.2888 7.02881Z" fill="#039BE5"/>
<path d="M10.4598 7.03173C10.2205 7.03173 10.0296 7.19473 9.97759 7.41623L9.97507 7.41523L8.6748 13.2977C8.73186 13.1807 8.85608 13.0277 9.11917 13.0277C9.54535 13.0277 11.2577 13.0277 11.2577 13.0277C14.1475 13.0277 16.5254 11.4677 17.1722 8.47023C17.2858 7.94373 17.3146 7.46723 17.2878 7.02923C17.2798 7.02823 17.2707 7.03173 17.2626 7.03173H10.4598Z" fill="#283593"/>
</svg>
