<svg width="22" height="22" viewBox="0 0 22 22" fill="none" xmlns="http://www.w3.org/2000/svg">
<path fill-rule="evenodd" clip-rule="evenodd" d="M20.9171 19.2456L14.6091 12.9086C15.7409 11.3024 16.228 9.32982 15.974 7.38149C15.72 5.43316 14.7434 3.65133 13.2378 2.389C11.7321 1.12666 9.80722 0.475934 7.84446 0.565756C5.8817 0.655578 4.0243 1.47935 2.64023 2.87392C1.25617 4.2685 0.446409 6.1321 0.371435 8.09548C0.296461 10.0589 0.961732 11.9788 2.23542 13.4749C3.5091 14.9709 5.29829 15.934 7.24848 16.1732C9.19867 16.4125 11.1676 15.9105 12.7651 14.7666L19.0731 21.1046C19.1945 21.2286 19.3393 21.3272 19.4991 21.3947C19.6589 21.4623 19.8305 21.4973 20.004 21.4979C20.1775 21.4985 20.3494 21.4646 20.5096 21.3982C20.6699 21.3317 20.8154 21.2341 20.9376 21.111C21.0598 20.9878 21.1563 20.8416 21.2215 20.6809C21.2867 20.5201 21.3194 20.348 21.3174 20.1745C21.3155 20.001 21.2791 19.8297 21.2104 19.6704C21.1417 19.5111 21.042 19.367 20.9171 19.2466V19.2456ZM8.22812 13.6036C7.18717 13.6093 6.16794 13.3059 5.29963 12.7318C4.43131 12.1576 3.75299 11.3386 3.35065 10.3786C2.94831 9.41849 2.84006 8.36055 3.03962 7.33889C3.23917 6.31723 3.73756 5.37784 4.47159 4.63973C5.20563 3.90162 6.14228 3.39804 7.16282 3.19283C8.18336 2.98763 9.24186 3.09006 10.2041 3.48708C11.1664 3.88411 11.9892 4.55787 12.5681 5.42299C13.147 6.28812 13.4561 7.30561 13.4561 8.34658C13.4561 9.73581 12.9063 11.0686 11.9266 12.0537C10.947 13.0387 9.61734 13.5959 8.22812 13.6036Z" fill="#22262A"/>
</svg>
