<svg width="39" height="26" viewBox="0 0 39 26" fill="none" xmlns="http://www.w3.org/2000/svg">
<path d="M1.85069 0.593994H36.8507C37.074 0.598285 37.2943 0.646599 37.499 0.736084C37.7037 0.825569 37.8887 0.95444 38.0436 1.11548C38.1984 1.27652 38.3199 1.46651 38.4012 1.67456C38.4826 1.88261 38.5222 2.10454 38.5177 2.32788V24.0022C38.5222 24.2255 38.4826 24.4475 38.4012 24.6555C38.3199 24.8636 38.1984 25.0536 38.0436 25.2146C37.8887 25.3756 37.7037 25.5045 37.499 25.594C37.2943 25.6835 37.074 25.7318 36.8507 25.7361H1.85069C1.62734 25.7318 1.40705 25.6835 1.20237 25.594C0.997693 25.5045 0.812634 25.3756 0.657818 25.2146C0.503001 25.0536 0.381384 24.8636 0.300029 24.6555C0.218675 24.4475 0.179188 24.2255 0.183696 24.0022V2.32788C0.179188 2.10454 0.218675 1.88261 0.300029 1.67456C0.381384 1.46651 0.503001 1.27652 0.657818 1.11548C0.812634 0.95444 0.997693 0.825569 1.20237 0.736084C1.40705 0.646599 1.62734 0.598285 1.85069 0.593994Z" fill="url(#paint0_linear_1_5)"/>
<path d="M30.1555 17.8201L29.9036 16.5251H27.1696L26.7206 17.8201H24.4785L27.6855 9.75513C27.7601 9.55514 27.8968 9.38411 28.0754 9.26733C28.2541 9.15056 28.4655 9.09424 28.6786 9.1062H30.4076L32.1295 17.821L30.1555 17.8201ZM28.9196 11.4758L27.7896 14.7371H29.5555L28.9196 11.4758ZM21.6326 11.5901C21.6326 12.5421 24.6326 12.7458 24.6326 14.9348C24.6326 17.0428 22.4176 17.8181 20.9506 17.8181C20.1168 17.8319 19.2895 17.6696 18.5226 17.342L18.8425 15.4519C19.7225 16.1719 22.3916 16.3771 22.3916 15.2341C22.3916 14.0911 19.4166 14.0639 19.4166 11.8879C19.4166 9.57594 21.9506 9.09985 23.0166 9.09985C23.6769 9.11678 24.33 9.24091 24.9506 9.46704L24.6436 11.2761C23.7256 10.7641 21.6306 10.642 21.6306 11.594L21.6326 11.5901ZM15.0486 17.8201L16.3926 9.10474H18.5436L17.1996 17.8201H15.0486ZM9.8916 17.8201L8.02551 10.2581C8.35516 10.464 8.66968 10.6932 8.96655 10.9441C9.86357 11.7117 10.5461 12.6986 10.9475 13.8088L11.1906 15.0999L13.2416 9.1062H15.5565L12.1345 17.821L9.8916 17.8201ZM6.09753 9.34399L5.99756 9.31421L6.09753 9.34399ZM5.87756 9.27905L5.82959 9.26587L5.87756 9.27905ZM6.40662 9.44897L6.27856 9.40405L6.40662 9.44897ZM7.89758 10.1741C7.83092 10.1327 7.76418 10.0929 7.69751 10.0549C7.76151 10.0989 7.82751 10.137 7.89551 10.179L7.89758 10.1741ZM7.38354 9.88403C7.32554 9.85403 7.26562 9.82219 7.20862 9.79419C7.26362 9.82719 7.32259 9.85892 7.38159 9.88892L7.38354 9.88403ZM6.84851 9.6272L6.73059 9.57593L6.84851 9.6272Z" fill="#494CA3"/>
<path d="M10.9446 13.813L10.2206 9.89501C10.1825 9.65886 10.0558 9.44617 9.86621 9.30028C9.67666 9.1544 9.43858 9.08666 9.20056 9.11034H5.81055L5.77051 9.25732C6.94756 9.5747 8.03839 10.1522 8.96252 10.9473C9.86005 11.715 10.543 12.7022 10.9446 13.813Z" fill="#FFC000"/>
<defs>
<linearGradient id="paint0_linear_1_5" x1="19.3507" y1="25.7361" x2="19.3507" y2="0.593994" gradientUnits="userSpaceOnUse">
<stop stop-color="#E59703"/>
<stop offset="0.231" stop-color="#E59703"/>
<stop offset="0.234" stop-color="white"/>
<stop offset="0.761" stop-color="white"/>
<stop offset="0.766" stop-color="#5457BB"/>
<stop offset="1" stop-color="#5457BB"/>
</linearGradient>
</defs>
</svg>
